<?xml version="1.0" encoding="utf-8"?>
<!-- Generator: Adobe Illustrator 23.0.1, SVG Export Plug-In . SVG Version: 6.00 Build 0)  -->
<svg version="1.1" id="Layer_1" xmlns="http://www.w3.org/2000/svg" xmlns:xlink="http://www.w3.org/1999/xlink" x="0px" y="0px"
	 viewBox="0 0 36 22" style="enable-background:new 0 0 36 22;" xml:space="preserve">
<style type="text/css">
	.st0{fill-rule:evenodd;clip-rule:evenodd;fill:#FFFFFF;}
</style>
<path class="st0" d="M17.9,0C25.5,0,31.4,5.6,36,10.9C31.5,16.9,25.5,22,17.9,22S4.2,16.7,0,11C4.1,5.4,10.3,0,17.9,0L17.9,0z
	 M17.9,7c-2.2,0-4,1.8-4,4s1.8,4,4,4s4-1.8,4-4S20.1,7,17.9,7L17.9,7z M17.9,2.3C13,2.3,9.1,6.2,9.1,11s3.9,8.8,8.7,8.8
	s8.7-3.9,8.7-8.8S22.7,2.3,17.9,2.3z"/>
</svg>
