<svg 
xmlns="http://www.w3.org/2000/svg"
xmlns:xlink="http://www.w3.org/1999/xlink"
width="439px" height="269px">
<path fill-rule="evenodd"  fill="rgb(255, 255, 255)"
d="M218.508,0.467 C310.834,0.467 382.961,68.641 438.684,133.737 C383.640,205.667 310.834,268.373 218.508,268.373 C126.181,268.373 52.015,203.616 0.369,134.421 C49.977,66.591 126.181,0.467 218.508,0.467 L218.508,0.467 ZM218.313,85.835 C191.667,85.835 170.065,107.560 170.065,134.358 C170.065,161.157 191.667,182.882 218.313,182.882 C244.960,182.882 266.561,161.157 266.561,134.358 C266.561,107.560 244.960,85.835 218.313,85.835 L218.313,85.835 ZM218.202,14.761 C152.028,14.761 98.383,68.534 98.383,134.867 C98.383,201.199 152.028,254.972 218.202,254.972 C284.376,254.972 338.021,201.199 338.021,134.867 C338.021,68.534 284.376,14.761 218.202,14.761 Z"/>
</svg>>
</svg>